<svg width="381" height="55" viewBox="0 0 381 55" fill="none" xmlns="http://www.w3.org/2000/svg">
<g filter="url(#filter0_d_39_136)">
<path d="M20.1982 45H0.983203L4.5112 0.899997H22.5922L26.2462 25.596H27.1912L30.9082 0.899997H48.9262L52.5172 45H33.2392L36.4522 18.288L35.5072 18.162L29.9002 39.645H23.5372L17.9932 18.162L16.9852 18.288L20.1982 45ZM92.4695 18.603L70.1045 17.973V20.556L86.6105 19.926V25.596L70.1045 24.966V27.675L93.8555 26.541V45H55.8665V0.899997H92.4695V18.603ZM115.252 45H96.0369L99.5649 0.899997H117.646L121.3 25.596H122.245L125.962 0.899997H143.98L147.571 45H128.293L131.506 18.288L130.561 18.162L124.954 39.645H118.591L113.047 18.162L112.039 18.288L115.252 45ZM187.523 18.603L165.158 17.973V20.556L181.664 19.926V25.596L165.158 24.966V27.675L188.909 26.541V45H150.92V0.899997H187.523V18.603ZM219.667 27.108L241.528 26.226V45H205.492V0.899997H221.242L219.667 27.108ZM262.958 35.928L261.761 45H241.916L256.91 0.899997H274.802L289.796 45H270.077L268.88 35.928H262.958ZM266.423 17.469H265.352L263.777 31.14H267.935L266.423 17.469ZM334.358 45H320.939L306.323 20.43L305.504 20.682L309.536 45H290.825V0.899997H304.622L318.797 20.43L319.742 20.178L316.466 0.899997H334.358V45ZM357.042 45H337.89V0.899997H357.042C364.35 0.899997 370.083 2.811 374.241 6.633C378.399 10.413 380.478 15.831 380.478 22.887C380.478 29.985 378.399 35.445 374.241 39.267C370.083 43.089 364.35 45 357.042 45ZM358.932 19.485H352.317V26.352H358.932C363.678 26.352 366.051 25.218 366.051 22.95C366.051 20.64 363.678 19.485 358.932 19.485Z" fill="#268A28"/>
<path d="M20.1982 45V48H23.5807L23.1767 44.6417L20.1982 45ZM0.983203 45L-2.00724 44.7608L-2.26638 48H0.983203V45ZM4.5112 0.899997V-2.1H1.74162L1.52076 0.660761L4.5112 0.899997ZM22.5922 0.899997L25.5599 0.4609L25.181 -2.1H22.5922V0.899997ZM26.2462 25.596L23.2785 26.0351L23.6574 28.596H26.2462V25.596ZM27.1912 25.596V28.596H29.7735L30.1578 26.0425L27.1912 25.596ZM30.9082 0.899997V-2.1H28.3259L27.9416 0.453496L30.9082 0.899997ZM48.9262 0.899997L51.9163 0.656517L51.6918 -2.1H48.9262V0.899997ZM52.5172 45V48H55.7714L55.5073 44.7565L52.5172 45ZM33.2392 45L30.2607 44.6417L29.8567 48H33.2392V45ZM36.4522 18.288L39.4307 18.6463L39.7844 15.7057L36.8487 15.3143L36.4522 18.288ZM35.5072 18.162L35.9037 15.1883L33.2743 14.8377L32.6044 17.4044L35.5072 18.162ZM29.9002 39.645V42.645H32.2177L32.803 40.4026L29.9002 39.645ZM23.5372 39.645L20.6324 40.3946L21.2131 42.645H23.5372V39.645ZM17.9932 18.162L20.898 17.4124L20.2388 14.8579L17.6211 15.1852L17.9932 18.162ZM16.9852 18.288L16.6131 15.3112L13.6501 15.6815L14.0067 18.6463L16.9852 18.288ZM20.1982 42H0.983203V48H20.1982V42ZM3.97365 45.2392L7.50165 1.13923L1.52076 0.660761L-2.00724 44.7608L3.97365 45.2392ZM4.5112 3.9H22.5922V-2.1H4.5112V3.9ZM19.6245 1.33909L23.2785 26.0351L29.2139 25.1569L25.5599 0.4609L19.6245 1.33909ZM26.2462 28.596H27.1912V22.596H26.2462V28.596ZM30.1578 26.0425L33.8748 1.3465L27.9416 0.453496L24.2246 25.1495L30.1578 26.0425ZM30.9082 3.9H48.9262V-2.1H30.9082V3.9ZM45.9361 1.14348L49.5271 45.2435L55.5073 44.7565L51.9163 0.656517L45.9361 1.14348ZM52.5172 42H33.2392V48H52.5172V42ZM36.2177 45.3583L39.4307 18.6463L33.4737 17.9297L30.2607 44.6417L36.2177 45.3583ZM36.8487 15.3143L35.9037 15.1883L35.1107 21.1357L36.0557 21.2617L36.8487 15.3143ZM32.6044 17.4044L26.9974 38.8874L32.803 40.4026L38.41 18.9196L32.6044 17.4044ZM29.9002 36.645H23.5372V42.645H29.9002V36.645ZM26.442 38.8954L20.898 17.4124L15.0884 18.9116L20.6324 40.3946L26.442 38.8954ZM17.6211 15.1852L16.6131 15.3112L17.3573 21.2648L18.3653 21.1388L17.6211 15.1852ZM14.0067 18.6463L17.2197 45.3583L23.1767 44.6417L19.9637 17.9297L14.0067 18.6463ZM92.4695 18.603L92.3851 21.6018L95.4695 21.6887V18.603H92.4695ZM70.1045 17.973L70.189 14.9742L67.1045 14.8873V17.973H70.1045ZM70.1045 20.556H67.1045V23.6727L70.219 23.5538L70.1045 20.556ZM86.6105 19.926H89.6105V16.8093L86.4961 16.9282L86.6105 19.926ZM86.6105 25.596L86.4961 28.5938L89.6105 28.7127V25.596H86.6105ZM70.1045 24.966L70.219 21.9682L67.1045 21.8493V24.966H70.1045ZM70.1045 27.675H67.1045V30.8217L70.2476 30.6716L70.1045 27.675ZM93.8555 26.541H96.8555V23.3943L93.7125 23.5444L93.8555 26.541ZM93.8555 45V48H96.8555V45H93.8555ZM55.8665 45H52.8665V48H55.8665V45ZM55.8665 0.899997V-2.1H52.8665V0.899997H55.8665ZM92.4695 0.899997H95.4695V-2.1H92.4695V0.899997ZM92.554 15.6042L70.189 14.9742L70.0201 20.9718L92.3851 21.6018L92.554 15.6042ZM67.1045 17.973V20.556H73.1045V17.973H67.1045ZM70.219 23.5538L86.725 22.9238L86.4961 16.9282L69.9901 17.5582L70.219 23.5538ZM83.6105 19.926V25.596H89.6105V19.926H83.6105ZM86.725 22.5982L70.219 21.9682L69.9901 27.9638L86.4961 28.5938L86.725 22.5982ZM67.1045 24.966V27.675H73.1045V24.966H67.1045ZM70.2476 30.6716L93.9986 29.5376L93.7125 23.5444L69.9615 24.6784L70.2476 30.6716ZM90.8555 26.541V45H96.8555V26.541H90.8555ZM93.8555 42H55.8665V48H93.8555V42ZM58.8665 45V0.899997H52.8665V45H58.8665ZM55.8665 3.9H92.4695V-2.1H55.8665V3.9ZM89.4695 0.899997V18.603H95.4695V0.899997H89.4695ZM115.252 45V48H118.634L118.23 44.6417L115.252 45ZM96.0369 45L93.0465 44.7608L92.7873 48H96.0369V45ZM99.5649 0.899997V-2.1H96.7953L96.5745 0.660761L99.5649 0.899997ZM117.646 0.899997L120.614 0.4609L120.235 -2.1H117.646V0.899997ZM121.3 25.596L118.332 26.0351L118.711 28.596H121.3V25.596ZM122.245 25.596V28.596H124.827L125.212 26.0425L122.245 25.596ZM125.962 0.899997V-2.1H123.38L122.995 0.453496L125.962 0.899997ZM143.98 0.899997L146.97 0.656517L146.746 -2.1H143.98V0.899997ZM147.571 45V48H150.825L150.561 44.7565L147.571 45ZM128.293 45L125.314 44.6417L124.91 48H128.293V45ZM131.506 18.288L134.484 18.6463L134.838 15.7057L131.902 15.3143L131.506 18.288ZM130.561 18.162L130.957 15.1883L128.328 14.8377L127.658 17.4044L130.561 18.162ZM124.954 39.645V42.645H127.271L127.857 40.4026L124.954 39.645ZM118.591 39.645L115.686 40.3946L116.267 42.645H118.591V39.645ZM113.047 18.162L115.952 17.4124L115.293 14.8579L112.675 15.1852L113.047 18.162ZM112.039 18.288L111.667 15.3112L108.704 15.6815L109.06 18.6463L112.039 18.288ZM115.252 42H96.0369V48H115.252V42ZM99.0274 45.2392L102.555 1.13923L96.5745 0.660761L93.0465 44.7608L99.0274 45.2392ZM99.5649 3.9H117.646V-2.1H99.5649V3.9ZM114.678 1.33909L118.332 26.0351L124.268 25.1569L120.614 0.4609L114.678 1.33909ZM121.3 28.596H122.245V22.596H121.3V28.596ZM125.212 26.0425L128.929 1.3465L122.995 0.453496L119.278 25.1495L125.212 26.0425ZM125.962 3.9H143.98V-2.1H125.962V3.9ZM140.99 1.14348L144.581 45.2435L150.561 44.7565L146.97 0.656517L140.99 1.14348ZM147.571 42H128.293V48H147.571V42ZM131.271 45.3583L134.484 18.6463L128.527 17.9297L125.314 44.6417L131.271 45.3583ZM131.902 15.3143L130.957 15.1883L130.164 21.1357L131.109 21.2617L131.902 15.3143ZM127.658 17.4044L122.051 38.8874L127.857 40.4026L133.464 18.9196L127.658 17.4044ZM124.954 36.645H118.591V42.645H124.954V36.645ZM121.496 38.8954L115.952 17.4124L110.142 18.9116L115.686 40.3946L121.496 38.8954ZM112.675 15.1852L111.667 15.3112L112.411 21.2648L113.419 21.1388L112.675 15.1852ZM109.06 18.6463L112.273 45.3583L118.23 44.6417L115.017 17.9297L109.06 18.6463ZM187.523 18.603L187.439 21.6018L190.523 21.6887V18.603H187.523ZM165.158 17.973L165.243 14.9742L162.158 14.8873V17.973H165.158ZM165.158 20.556H162.158V23.6727L165.273 23.5538L165.158 20.556ZM181.664 19.926H184.664V16.8093L181.55 16.9282L181.664 19.926ZM181.664 25.596L181.55 28.5938L184.664 28.7127V25.596H181.664ZM165.158 24.966L165.273 21.9682L162.158 21.8493V24.966H165.158ZM165.158 27.675H162.158V30.8217L165.301 30.6716L165.158 27.675ZM188.909 26.541H191.909V23.3943L188.766 23.5444L188.909 26.541ZM188.909 45V48H191.909V45H188.909ZM150.92 45H147.92V48H150.92V45ZM150.92 0.899997V-2.1H147.92V0.899997H150.92ZM187.523 0.899997H190.523V-2.1H187.523V0.899997ZM187.608 15.6042L165.243 14.9742L165.074 20.9718L187.439 21.6018L187.608 15.6042ZM162.158 17.973V20.556H168.158V17.973H162.158ZM165.273 23.5538L181.779 22.9238L181.55 16.9282L165.044 17.5582L165.273 23.5538ZM178.664 19.926V25.596H184.664V19.926H178.664ZM181.779 22.5982L165.273 21.9682L165.044 27.9638L181.55 28.5938L181.779 22.5982ZM162.158 24.966V27.675H168.158V24.966H162.158ZM165.301 30.6716L189.052 29.5376L188.766 23.5444L165.015 24.6784L165.301 30.6716ZM185.909 26.541V45H191.909V26.541H185.909ZM188.909 42H150.92V48H188.909V42ZM153.92 45V0.899997H147.92V45H153.92ZM150.92 3.9H187.523V-2.1H150.92V3.9ZM184.523 0.899997V18.603H190.523V0.899997H184.523ZM219.667 27.108L216.672 26.928L216.473 30.2393L219.787 30.1056L219.667 27.108ZM241.528 26.226H244.528V23.1025L241.407 23.2284L241.528 26.226ZM241.528 45V48H244.528V45H241.528ZM205.492 45H202.492V48H205.492V45ZM205.492 0.899997V-2.1H202.492V0.899997H205.492ZM221.242 0.899997L224.236 1.07996L224.427 -2.1H221.242V0.899997ZM219.787 30.1056L241.648 29.2236L241.407 23.2284L219.546 24.1104L219.787 30.1056ZM238.528 26.226V45H244.528V26.226H238.528ZM241.528 42H205.492V48H241.528V42ZM208.492 45V0.899997H202.492V45H208.492ZM205.492 3.9H221.242V-2.1H205.492V3.9ZM218.247 0.720033L216.672 26.928L222.661 27.288L224.236 1.07996L218.247 0.720033ZM262.958 35.928V32.928H260.328L259.984 35.5356L262.958 35.928ZM261.761 45V48H264.391L264.735 45.3924L261.761 45ZM241.916 45L239.076 44.0343L237.727 48H241.916V45ZM256.91 0.899997V-2.1H254.761L254.07 -0.0657112L256.91 0.899997ZM274.802 0.899997L277.642 -0.0657111L276.951 -2.1H274.802V0.899997ZM289.796 45V48H293.985L292.636 44.0343L289.796 45ZM270.077 45L267.103 45.3924L267.447 48H270.077V45ZM268.88 35.928L271.854 35.5356L271.51 32.928H268.88V35.928ZM266.423 17.469L269.405 17.1392L269.109 14.469H266.423V17.469ZM265.352 17.469V14.469H262.678L262.372 17.1256L265.352 17.469ZM263.777 31.14L260.797 30.7966L260.411 34.14H263.777V31.14ZM267.935 31.14V34.14H271.285L270.917 30.8102L267.935 31.14ZM259.984 35.5356L258.787 44.6076L264.735 45.3924L265.932 36.3204L259.984 35.5356ZM261.761 42H241.916V48H261.761V42ZM244.756 45.9657L259.75 1.86571L254.07 -0.0657112L239.076 44.0343L244.756 45.9657ZM256.91 3.9H274.802V-2.1H256.91V3.9ZM271.962 1.86571L286.956 45.9657L292.636 44.0343L277.642 -0.0657111L271.962 1.86571ZM289.796 42H270.077V48H289.796V42ZM273.051 44.6076L271.854 35.5356L265.906 36.3204L267.103 45.3924L273.051 44.6076ZM268.88 32.928H262.958V38.928H268.88V32.928ZM266.423 14.469H265.352V20.469H266.423V14.469ZM262.372 17.1256L260.797 30.7966L266.757 31.4834L268.332 17.8124L262.372 17.1256ZM263.777 34.14H267.935V28.14H263.777V34.14ZM270.917 30.8102L269.405 17.1392L263.441 17.7988L264.953 31.4698L270.917 30.8102ZM334.358 45V48H337.358V45H334.358ZM320.939 45L318.36 46.5338L319.232 48H320.939V45ZM306.323 20.43L308.901 18.8962L307.695 16.8689L305.44 17.5627L306.323 20.43ZM305.504 20.682L304.621 17.8147L302.115 18.5858L302.544 21.1727L305.504 20.682ZM309.536 45V48H313.074L312.495 44.5093L309.536 45ZM290.825 45H287.825V48H290.825V45ZM290.825 0.899997V-2.1H287.825V0.899997H290.825ZM304.622 0.899997L307.049 -0.862189L306.151 -2.1H304.622V0.899997ZM318.797 20.43L316.369 22.1922L317.579 23.8596L319.57 23.3287L318.797 20.43ZM319.742 20.178L320.515 23.0767L323.157 22.3719L322.699 19.6754L319.742 20.178ZM316.466 0.899997V-2.1H312.913L313.508 1.4026L316.466 0.899997ZM334.358 0.899997H337.358V-2.1H334.358V0.899997ZM334.358 42H320.939V48H334.358V42ZM323.517 43.4662L308.901 18.8962L303.744 21.9638L318.36 46.5338L323.517 43.4662ZM305.44 17.5627L304.621 17.8147L306.386 23.5493L307.205 23.2973L305.44 17.5627ZM302.544 21.1727L306.576 45.4907L312.495 44.5093L308.463 20.1913L302.544 21.1727ZM309.536 42H290.825V48H309.536V42ZM293.825 45V0.899997H287.825V45H293.825ZM290.825 3.9H304.622V-2.1H290.825V3.9ZM302.194 2.66218L316.369 22.1922L321.224 18.6678L307.049 -0.862189L302.194 2.66218ZM319.57 23.3287L320.515 23.0767L318.969 17.2793L318.024 17.5313L319.57 23.3287ZM322.699 19.6754L319.423 0.397399L313.508 1.4026L316.784 20.6806L322.699 19.6754ZM316.466 3.9H334.358V-2.1H316.466V3.9ZM331.358 0.899997V45H337.358V0.899997H331.358ZM337.89 45H334.89V48H337.89V45ZM337.89 0.899997V-2.1H334.89V0.899997H337.89ZM374.241 6.633L372.211 8.84168L372.217 8.84727L372.223 8.85282L374.241 6.633ZM374.241 39.267L372.211 37.0583L372.211 37.0583L374.241 39.267ZM352.317 19.485V16.485H349.317V19.485H352.317ZM352.317 26.352H349.317V29.352H352.317V26.352ZM357.042 42H337.89V48H357.042V42ZM340.89 45V0.899997H334.89V45H340.89ZM337.89 3.9H357.042V-2.1H337.89V3.9ZM357.042 3.9C363.826 3.9 368.754 5.66424 372.211 8.84168L376.271 4.42432C371.412 -0.0422416 364.874 -2.1 357.042 -2.1V3.9ZM372.223 8.85282C375.603 11.9253 377.478 16.4448 377.478 22.887H383.478C383.478 15.2172 381.195 8.90073 376.259 4.41318L372.223 8.85282ZM377.478 22.887C377.478 29.3759 375.599 33.9436 372.211 37.0583L376.271 41.4757C381.199 36.9464 383.478 30.5941 383.478 22.887H377.478ZM372.211 37.0583C368.754 40.2358 363.826 42 357.042 42V48C364.874 48 371.412 45.9422 376.271 41.4757L372.211 37.0583ZM358.932 16.485H352.317V22.485H358.932V16.485ZM349.317 19.485V26.352H355.317V19.485H349.317ZM352.317 29.352H358.932V23.352H352.317V29.352ZM358.932 29.352C361.448 29.352 363.769 29.0666 365.565 28.2083C366.503 27.76 367.404 27.105 368.067 26.1547C368.747 25.1788 369.051 24.0706 369.051 22.95H363.051C363.051 22.9634 363.058 22.8475 363.145 22.7221C363.215 22.6223 363.226 22.676 362.978 22.7947C362.401 23.0704 361.162 23.352 358.932 23.352V29.352ZM369.051 22.95C369.051 21.8307 368.754 20.721 368.081 19.7389C367.424 18.7797 366.527 18.1126 365.584 17.6538C363.781 16.7762 361.452 16.485 358.932 16.485V22.485C361.158 22.485 362.388 22.7713 362.958 23.0487C363.202 23.1674 363.195 23.2222 363.131 23.1292C363.052 23.0134 363.051 22.9143 363.051 22.95H369.051Z" fill="black"/>
</g>
<defs>
<filter id="filter0_d_39_136" x="0.983154" y="0.899902" width="379.495" height="54.1001" filterUnits="userSpaceOnUse" color-interpolation-filters="sRGB">
<feFlood flood-opacity="0" result="BackgroundImageFix"/>
<feColorMatrix in="SourceAlpha" type="matrix" values="0 0 0 0 0 0 0 0 0 0 0 0 0 0 0 0 0 0 127 0" result="hardAlpha"/>
<feOffset dy="10"/>
<feComposite in2="hardAlpha" operator="out"/>
<feColorMatrix type="matrix" values="0 0 0 0 0 0 0 0 0 0 0 0 0 0 0 0 0 0 1 0"/>
<feBlend mode="normal" in2="BackgroundImageFix" result="effect1_dropShadow_39_136"/>
<feBlend mode="normal" in="SourceGraphic" in2="effect1_dropShadow_39_136" result="shape"/>
</filter>
</defs>
</svg>
