<svg width="133" height="104" viewBox="0 0 133 104" fill="none" xmlns="http://www.w3.org/2000/svg">
<path d="M28.3972 59.9883L25.7796 55.7692L30.1486 53.1732L29.9931 52.9449C28.5147 53.6501 27.1868 53.8415 26.0092 53.5191C24.8443 53.1907 23.9936 52.4642 23.4571 51.3396C22.7459 49.8485 22.8198 48.394 23.6789 46.9759C24.5507 45.5518 26.0228 44.3455 28.0951 43.3569C30.1547 42.3744 32.0059 41.9954 33.6487 42.22C35.3041 42.4385 36.4874 43.2933 37.1987 44.7844C38.4042 47.3116 37.2306 49.6475 33.6778 51.7921L30.002 53.9877L30.1846 54.2729C30.6917 53.9378 31.9983 53.2138 34.1042 52.1006C36.2167 50.9687 37.6651 50.0218 38.4495 49.2599L41.1295 53.6586C40.2958 54.3821 39.282 55.0208 38.0882 55.5748C36.9131 56.1353 35.8155 56.5659 34.7955 56.8663C33.7815 57.1794 32.6745 57.6066 31.4747 58.1479C30.2875 58.6833 29.2617 59.2967 28.3972 59.9883ZM31.8835 51.2986C32.6543 50.9309 33.2219 50.5438 33.5864 50.1372C33.9509 49.7307 34.0517 49.3568 33.889 49.0157C33.7202 48.6618 33.3632 48.4987 32.8179 48.5261C32.2726 48.5536 31.6145 48.7512 30.8437 49.1189C30.0603 49.4926 29.4863 49.8827 29.1219 50.2893C28.77 50.6898 28.6785 51.0669 28.8473 51.4207C29.01 51.7619 29.3577 51.9218 29.8904 51.9003C30.4357 51.8729 31.1001 51.6723 31.8835 51.2986ZM48.2686 50.7183C46.3353 51.6406 44.6056 51.884 43.0795 51.4487C41.5534 51.0134 40.3684 49.9112 39.5245 48.1422L35.6818 40.0868L40.4202 37.8264L42.5711 43.4082C42.8575 44.1712 43.2548 44.6952 43.763 44.9801C44.2778 45.2464 44.8575 45.2259 45.5019 44.9184C46.159 44.605 46.5397 44.1675 46.644 43.6058C46.755 43.0255 46.604 42.384 46.1913 41.6812L43.2064 36.4972L47.9449 34.2368L51.7876 42.2922C52.6255 44.0486 52.7364 45.6631 52.1205 47.1358C51.4985 48.5959 50.2146 49.79 48.2686 50.7183ZM58.6652 42.0593L59.6071 44.9605L53.6366 47.8086L51.8184 32.389L57.2013 29.8212L68.0415 40.937L62.109 43.767L60.4468 41.2094L58.6652 42.0593ZM57.0584 36.0086L56.7362 36.1623L58.2244 40.5013L59.4754 39.9046L57.0584 36.0086ZM74.7874 38.0679C72.4372 39.1891 70.3115 39.5129 68.4103 39.0393C66.5031 38.553 64.992 37.1411 63.8768 34.8035C62.7557 32.4532 62.6125 30.3809 63.4473 28.5867C64.2821 26.7924 65.881 25.3317 68.2439 24.2045C69.8107 23.457 71.3543 22.9534 72.8745 22.6935L75.4809 29.0352C74.8995 28.9869 74.1968 29.0584 73.3729 29.2497C72.5617 29.4351 71.7833 29.7056 71.0378 30.0612C68.8012 31.1281 67.8487 32.0091 68.1802 32.7041C68.3791 33.121 68.818 33.2607 69.4969 33.123C70.1824 32.9666 71.1253 32.6021 72.3257 32.0295C73.1218 31.6497 73.8726 31.1752 74.5783 30.6059C75.2965 30.0306 75.8264 29.4831 76.168 28.9634L79.1987 35.2191C78.0648 36.2563 76.5944 37.2059 74.7874 38.0679ZM83.0281 29.0879L85.4231 32.6453L80.4193 35.0323L74.0901 21.7646L78.7717 19.5313L81.2825 25.9652L81.5289 25.8477L79.8331 19.025L86.5807 15.8062L82.8207 25.5804L83.1467 25.7274C83.5045 24.3313 84.0814 23.4434 84.8775 23.0636C86.4064 22.3343 87.8773 22.54 89.2902 23.6809C90.697 24.8091 91.8404 26.6369 92.7203 29.1643L87.2427 31.7773C87.1001 31.0232 86.8913 30.293 86.6164 29.5865C86.354 28.874 86.0496 28.2359 85.7032 27.6722C85.3693 27.1024 84.9823 26.6976 84.5421 26.4577C84.1086 26.1992 83.677 26.1724 83.2474 26.3774C82.7546 26.6124 82.4909 26.9864 82.4564 27.4993C82.4284 27.9934 82.619 28.523 83.0281 29.0879ZM26.321 89.6194L27.2629 92.5205L21.2924 95.3686L19.4742 79.949L24.8571 77.3812L35.6973 88.497L29.7648 91.327L28.1026 88.7694L26.321 89.6194ZM24.7142 83.5686L24.392 83.7223L25.8802 88.0613L27.1312 87.4646L24.7142 83.5686ZM40.7832 86.0708L36.0068 88.3493L29.6776 75.0816L36.5389 71.8086C38.2695 71.014 39.8174 70.7797 41.1828 71.1056C42.5608 71.4255 43.6144 72.3499 44.3438 73.8789C45.0731 75.4078 45.1346 76.821 44.5282 78.1186C43.9157 79.4035 42.7502 80.4558 41.0318 81.2756L38.5299 82.4691L40.7832 86.0708ZM36.7215 78.6783L37.4268 80.1567L39.7771 79.0355C40.6742 78.6076 41.0052 78.1472 40.7702 77.6544C40.5351 77.1616 39.9753 77.1261 39.0908 77.5481L36.7215 78.6783ZM53.9805 79.7752L49.2042 82.0537L42.875 68.786L49.7363 65.5129C51.4668 64.7184 53.0148 64.4841 54.3801 64.81C55.7581 65.1299 56.8118 66.0543 57.5411 67.5832C58.2705 69.1122 58.332 70.5254 57.7255 71.823C57.1131 73.1078 55.9476 74.1602 54.2291 74.98L51.7272 76.1735L53.9805 79.7752ZM49.9189 72.3827L50.6241 73.8611L52.9744 72.7399C53.8716 72.3119 54.2026 71.8516 53.9675 71.3588C53.7324 70.866 53.1726 70.8305 52.2881 71.2525L49.9189 72.3827ZM65.5913 67.8613L64.2456 68.5033L67.2347 73.4525L62.4015 75.7581L56.0724 62.4904L62.9336 59.2173C66.6787 57.5083 69.1661 57.9427 70.3958 60.5204C70.8901 61.5566 70.8207 62.5979 70.1876 63.6445C69.5671 64.685 68.3787 65.6242 66.6223 66.4621L66.7308 66.6895L67.9059 66.1289C69.4223 65.4056 70.8003 65.3842 72.0401 66.0647C73.2799 66.7452 74.2242 67.9932 74.8732 69.8087L69.4334 72.4037C69.1718 70.9773 68.6651 69.7687 67.9132 68.7779C67.174 67.7811 66.4 67.4755 65.5913 67.8613ZM65.2452 64.7458L62.9707 65.8308L63.5946 67.1386L65.8501 66.0626C66.8231 65.5985 67.2071 65.1516 67.0021 64.722C66.7911 64.2797 66.2055 64.2877 65.2452 64.7458ZM86.2089 62.5165C85.524 64.3323 84.1517 65.7315 82.092 66.714C80.0324 67.6966 78.0814 67.8827 76.2392 67.2724C74.3969 66.6622 72.9514 65.2577 71.9025 63.0591C70.8537 60.8604 70.6685 58.8625 71.3468 57.0653C72.0377 55.2622 73.4193 53.8663 75.4916 52.8777C77.5639 51.8892 79.5119 51.6967 81.3354 52.3004C83.1717 52.898 84.6142 54.2962 85.663 56.4948C86.7119 58.6935 86.8938 60.7007 86.2089 62.5165ZM77.4054 61.6206C77.9688 61.6311 78.6359 61.4524 79.4067 61.0847C80.1775 60.7171 80.736 60.311 81.0824 59.8665C81.4288 59.4221 81.5056 58.9977 81.3127 58.5933C81.1198 58.189 80.7417 57.9816 80.1783 57.9712C79.6149 57.9607 78.9478 58.1393 78.177 58.507C77.4062 58.8747 76.8476 59.2808 76.5012 59.7252C76.1548 60.1697 76.0781 60.5941 76.271 60.9984C76.4639 61.4028 76.842 61.6102 77.4054 61.6206ZM97.7839 58.8795L92.42 61.4382L81.5608 50.3315L87.4365 47.5286L92.1388 54.3131L92.4421 54.1684L90.0711 46.2718L95.9658 43.4598L97.7839 58.8795ZM109.828 43.385L103.009 46.4053L103.38 47.1824L108.255 44.6239L109.069 46.3298L104.013 48.5092L104.402 49.3242L111.384 45.5743L114.034 51.1278L102.604 56.5799L96.2752 43.3122L107.287 38.059L109.828 43.385ZM120.694 47.9506L114.932 50.6993L108.603 37.4316L114.365 34.6829C116.563 33.6341 118.562 33.3862 120.362 33.9394C122.155 34.4798 123.558 35.8115 124.571 37.9343C125.59 40.0698 125.748 42.0108 125.045 43.7575C124.343 45.5041 122.892 46.9018 120.694 47.9506ZM117.601 40.0031L115.61 40.9524L116.596 43.0184L118.586 42.069C120.014 41.3879 120.565 40.7062 120.24 40.0238C119.908 39.3289 119.028 39.3219 117.601 40.0031Z" fill="white"/>
<path d="M28.3972 59.9883L27.5475 60.5155L28.1417 61.4733L29.0219 60.7692L28.3972 59.9883ZM25.7796 55.7692L25.2688 54.9095L24.3925 55.4302L24.9299 56.2964L25.7796 55.7692ZM30.1486 53.1732L30.6594 54.0329L31.5738 53.4896L30.9752 52.6104L30.1486 53.1732ZM29.9931 52.9449L30.8197 52.3821L30.3369 51.6729L29.5626 52.0423L29.9931 52.9449ZM26.0092 53.5191L25.7378 54.4816L25.7451 54.4836L26.0092 53.5191ZM23.6789 46.9759L22.8261 46.4538L22.8237 46.4577L23.6789 46.9759ZM33.6487 42.22L33.5132 43.2108L33.5178 43.2114L33.6487 42.22ZM33.6778 51.7921L34.1906 52.6506L34.1946 52.6482L33.6778 51.7921ZM30.002 53.9877L29.4892 53.1292L28.6036 53.6581L29.1598 54.5269L30.002 53.9877ZM30.1846 54.2729L29.3424 54.812L29.8893 55.6663L30.7357 55.1073L30.1846 54.2729ZM34.1042 52.1006L34.5715 52.9847L34.5765 52.982L34.1042 52.1006ZM38.4495 49.2599L39.3035 48.7396L38.6515 47.6695L37.7527 48.5426L38.4495 49.2599ZM41.1295 53.6586L41.7849 54.4139L42.4232 53.86L41.9835 53.1383L41.1295 53.6586ZM38.0882 55.5748L37.6672 54.6676L37.6576 54.6722L38.0882 55.5748ZM34.7955 56.8663L34.5129 55.907L34.5004 55.9108L34.7955 56.8663ZM31.4747 58.1479L31.8858 59.0596L31.886 59.0595L31.4747 58.1479ZM33.5864 50.1372L32.8418 49.4697L32.8418 49.4697L33.5864 50.1372ZM32.8179 48.5261L32.7676 47.5274L32.7676 47.5274L32.8179 48.5261ZM29.1219 50.2893L28.3772 49.6217L28.3706 49.6293L29.1219 50.2893ZM29.8904 51.9003L29.9306 52.8996L29.9407 52.8991L29.8904 51.9003ZM29.247 59.4611L26.6294 55.242L24.9299 56.2964L27.5475 60.5155L29.247 59.4611ZM26.2905 56.6289L30.6594 54.0329L29.6378 52.3135L25.2688 54.9095L26.2905 56.6289ZM30.9752 52.6104L30.8197 52.3821L29.1665 53.5077L29.322 53.736L30.9752 52.6104ZM29.5626 52.0423C28.2261 52.6799 27.1504 52.7948 26.2733 52.5546L25.7451 54.4836C27.2231 54.8883 28.8034 54.6204 30.4237 53.8474L29.5626 52.0423ZM26.2806 52.5567C25.402 52.309 24.7764 51.7824 24.3597 50.909L22.5546 51.7701C23.2109 53.1459 24.2866 54.0724 25.7379 54.4816L26.2806 52.5567ZM24.3597 50.909C23.7941 49.7234 23.8488 48.6253 24.5342 47.4941L22.8237 46.4577C21.7907 48.1626 21.6976 49.9737 22.5546 51.7701L24.3597 50.909ZM24.5318 47.498C25.2713 46.29 26.5646 45.1949 28.5256 44.2595L27.6645 42.4543C25.4809 43.496 23.8301 44.8136 22.8261 46.4538L24.5318 47.498ZM28.5256 44.2595C30.4733 43.3303 32.1237 43.0208 33.5132 43.2108L33.7841 41.2292C31.8881 40.97 29.8361 41.4184 27.6645 42.4543L28.5256 44.2595ZM33.5178 43.2114C34.842 43.3862 35.7325 44.0334 36.2961 45.2149L38.1012 44.3538C37.2423 42.5533 35.7661 41.4909 33.7796 41.2286L33.5178 43.2114ZM36.2961 45.2149C36.7768 46.2226 36.7662 47.1127 36.3291 47.9827C35.8631 48.9102 34.8625 49.9089 33.161 50.936L34.1946 52.6482C36.046 51.5306 37.4086 50.289 38.1162 48.8806C38.8527 47.4147 38.8261 45.8733 38.1012 44.3538L36.2961 45.2149ZM33.165 50.9336L29.4892 53.1292L30.5148 54.8462L34.1906 52.6506L33.165 50.9336ZM29.1598 54.5269L29.3424 54.812L31.0268 53.7337L30.8442 53.4485L29.1598 54.5269ZM30.7357 55.1073C31.1931 54.8051 32.4501 54.1061 34.5715 52.9847L33.6369 51.2165C31.5465 52.3215 30.1904 53.0706 29.6334 53.4385L30.7357 55.1073ZM34.5765 52.982C36.6974 51.8457 38.254 50.844 39.1463 49.9772L37.7527 48.5426C37.0763 49.1997 35.7361 50.0918 33.6319 51.2191L34.5765 52.982ZM37.5955 49.7802L40.2755 54.1789L41.9835 53.1383L39.3035 48.7396L37.5955 49.7802ZM40.4741 52.9033C39.7231 53.555 38.792 54.1458 37.6673 54.6677L38.5091 56.4818C39.772 55.8958 40.8685 55.2091 41.7849 54.4139L40.4741 52.9033ZM37.6576 54.6722C36.5201 55.2148 35.4724 55.6244 34.5129 55.9071L35.078 57.8256C36.1586 57.5073 37.306 57.0558 38.5188 56.4773L37.6576 54.6722ZM34.5004 55.9108C33.4387 56.2386 32.2925 56.6819 31.0635 57.2364L31.886 59.0595C33.0566 58.5313 34.1242 58.1202 35.0905 57.8218L34.5004 55.9108ZM31.0637 57.2363C29.8131 57.8002 28.7127 58.4552 27.7725 59.2074L29.0219 60.7692C29.8106 60.1382 30.7619 59.5663 31.8858 59.0596L31.0637 57.2363ZM32.3141 52.2011C33.1441 51.8052 33.8429 51.3492 34.331 50.8048L32.8418 49.4697C32.601 49.7383 32.1645 50.0566 31.453 50.396L32.3141 52.2011ZM34.331 50.8048C34.8246 50.2542 35.2036 49.4489 34.7916 48.5851L32.9864 49.4462C32.9783 49.4291 32.9685 49.4003 32.9654 49.3639C32.9622 49.3279 32.9671 49.3019 32.9699 49.2914C32.9723 49.2828 32.9706 49.2941 32.9514 49.3263C32.9321 49.3587 32.8982 49.4068 32.8418 49.4697L34.331 50.8048ZM34.7916 48.5851C34.38 47.7224 33.5277 47.4891 32.7676 47.5274L32.8682 49.5249C32.9505 49.5207 33.0072 49.5248 33.0428 49.5302C33.0779 49.5354 33.087 49.5411 33.079 49.5374C33.0693 49.533 33.0485 49.5212 33.026 49.4991C33.0035 49.477 32.9912 49.4563 32.9864 49.4462L34.7916 48.5851ZM32.7676 47.5274C32.0373 47.5642 31.2432 47.8203 30.4132 48.2163L31.2743 50.0214C31.9858 49.682 32.5078 49.543 32.8682 49.5249L32.7676 47.5274ZM30.4132 48.2163C29.5728 48.6172 28.8665 49.0761 28.3773 49.6217L29.8664 50.9568C30.1062 50.6894 30.5478 50.368 31.2743 50.0214L30.4132 48.2163ZM28.3706 49.6293C27.8682 50.2011 27.5401 51.0032 27.9447 51.8513L29.7498 50.9902C29.7533 50.9974 29.7609 51.017 29.764 51.0459C29.767 51.0749 29.7638 51.0974 29.7611 51.1084C29.7589 51.1176 29.7595 51.1087 29.7755 51.0806C29.7918 51.0519 29.8216 51.0079 29.8731 50.9492L28.3706 49.6293ZM27.9447 51.8513C28.3499 52.7007 29.1914 52.9293 29.9306 52.8995L29.8502 50.9011C29.7701 50.9044 29.7152 50.8999 29.6809 50.8946C29.6471 50.8892 29.639 50.8839 29.6478 50.8879C29.6583 50.8928 29.6804 50.9053 29.7045 50.929C29.7287 50.9527 29.7431 50.9761 29.7498 50.9902L27.9447 51.8513ZM29.9407 52.8991C30.6726 52.8622 31.4737 52.602 32.3141 52.2011L31.453 50.396C30.7265 50.7425 30.1988 50.8835 29.8401 50.9016L29.9407 52.8991ZM43.0795 51.4487L43.3538 50.4871L43.3538 50.4871L43.0795 51.4487ZM35.6818 40.0868L35.2512 39.1842L34.3486 39.6148L34.7792 40.5173L35.6818 40.0868ZM40.4202 37.8264L41.3533 37.4668L40.9649 36.4586L39.9897 36.9238L40.4202 37.8264ZM42.5711 43.4082L43.5073 43.0567L43.5042 43.0486L42.5711 43.4082ZM43.763 44.9801L43.274 45.8524L43.2886 45.8606L43.3036 45.8683L43.763 44.9801ZM46.644 43.6058L45.6618 43.418L45.6608 43.4231L46.644 43.6058ZM46.1913 41.6812L45.3246 42.1802L45.329 42.1877L46.1913 41.6812ZM43.2064 36.4972L42.7759 35.5947L41.8007 36.0599L42.3398 36.9962L43.2064 36.4972ZM47.9449 34.2368L48.8475 33.8063L48.4169 32.9037L47.5143 33.3343L47.9449 34.2368ZM52.1205 47.1358L53.0405 47.5277L53.043 47.5217L52.1205 47.1358ZM47.8381 49.8158C46.047 50.6702 44.5743 50.8352 43.3538 50.4871L42.8052 52.4103C44.6369 52.9328 46.6237 52.611 48.6992 51.6209L47.8381 49.8158ZM43.3538 50.4871C42.1668 50.1485 41.1788 49.2875 40.427 47.7116L38.6219 48.5727C39.5579 50.5348 40.94 51.8783 42.8052 52.4103L43.3538 50.4871ZM40.427 47.7116L36.5843 39.6562L34.7792 40.5173L38.6219 48.5727L40.427 47.7116ZM36.1123 40.9893L40.8508 38.7289L39.9897 36.9238L35.2512 39.1842L36.1123 40.9893ZM39.4871 38.1859L41.6379 43.7677L43.5042 43.0486L41.3533 37.4668L39.4871 38.1859ZM41.6349 43.7596C41.9715 44.6563 42.4911 45.4134 43.274 45.8524L44.2521 44.1079C44.0186 43.9769 43.7435 43.6861 43.5073 43.0567L41.6349 43.7596ZM43.3036 45.8683C44.1611 46.3119 45.0784 46.2284 45.9324 45.821L45.0713 44.0159C44.6366 44.2233 44.3946 44.1809 44.2225 44.0919L43.3036 45.8683ZM45.9324 45.821C46.7905 45.4117 47.4487 44.7494 47.6272 43.7885L45.6608 43.4231C45.6307 43.5855 45.5274 43.7983 45.0713 44.0159L45.9324 45.821ZM47.6262 43.7936C47.7975 42.8978 47.5425 42.0072 47.0535 41.1747L45.329 42.1877C45.6656 42.7607 45.7124 43.1532 45.6618 43.418L47.6262 43.7936ZM47.0579 41.1822L44.0731 35.9983L42.3398 36.9962L45.3246 42.1802L47.0579 41.1822ZM43.637 37.3998L48.3755 35.1394L47.5143 33.3343L42.7759 35.5947L43.637 37.3998ZM47.0423 34.6674L50.885 42.7228L52.6902 41.8617L48.8475 33.8063L47.0423 34.6674ZM50.885 42.7228C51.6295 44.2833 51.6804 45.5964 51.1979 46.75L53.043 47.5217C53.7924 45.7299 53.6215 43.8139 52.6902 41.8617L50.885 42.7228ZM51.2005 46.7439C50.7036 47.9103 49.6435 48.9545 47.8381 49.8158L48.6992 51.6209C50.7856 50.6256 52.2934 49.2815 53.0405 47.5277L51.2005 46.7439ZM58.6652 42.0593L58.2346 41.1568L57.4433 41.5343L57.714 42.3681L58.6652 42.0593ZM59.6071 44.9605L60.0376 45.8631L60.8289 45.4856L60.5582 44.6517L59.6071 44.9605ZM53.6366 47.8086L52.6435 47.9257L52.807 49.3123L54.0671 48.7112L53.6366 47.8086ZM51.8184 32.389L51.3879 31.4864L50.7415 31.7948L50.8253 32.5061L51.8184 32.389ZM57.2013 29.8212L57.9173 29.123L57.4172 28.6102L56.7708 28.9186L57.2013 29.8212ZM68.0415 40.937L68.4721 41.8395L69.7323 41.2384L68.7574 40.2388L68.0415 40.937ZM62.109 43.767L61.2705 44.3119L61.7482 45.047L62.5395 44.6696L62.109 43.767ZM60.4468 41.2094L61.2853 40.6645L60.8076 39.9294L60.0163 40.3069L60.4468 41.2094ZM57.0584 36.0086L57.9082 35.4814L57.4361 34.7205L56.6279 35.106L57.0584 36.0086ZM56.7362 36.1623L56.3057 35.2597L55.5011 35.6435L55.7903 36.4867L56.7362 36.1623ZM58.2244 40.5013L57.2785 40.8257L57.6425 41.8869L58.655 41.4039L58.2244 40.5013ZM59.4754 39.9046L59.9059 40.8071L60.9138 40.3263L60.3251 39.3774L59.4754 39.9046ZM57.714 42.3681L58.6559 45.2693L60.5582 44.6517L59.6163 41.7506L57.714 42.3681ZM59.1765 44.0579L53.206 46.9061L54.0671 48.7112L60.0376 45.8631L59.1765 44.0579ZM54.6297 47.6915L52.8116 32.2719L50.8253 32.5061L52.6435 47.9257L54.6297 47.6915ZM52.249 33.2916L57.6319 30.7237L56.7708 28.9186L51.3879 31.4864L52.249 33.2916ZM56.4854 30.5193L67.3256 41.6351L68.7574 40.2388L57.9173 29.123L56.4854 30.5193ZM67.611 40.0344L61.6784 42.8644L62.5395 44.6696L68.4721 41.8395L67.611 40.0344ZM62.9475 43.2221L61.2853 40.6645L59.6084 41.7544L61.2705 44.3119L62.9475 43.2221ZM60.0163 40.3069L58.2346 41.1568L59.0957 42.9619L60.8774 42.112L60.0163 40.3069ZM56.6279 35.106L56.3057 35.2597L57.1668 37.0649L57.489 36.9111L56.6279 35.106ZM55.7903 36.4867L57.2785 40.8257L59.1703 40.1769L57.6821 35.8379L55.7903 36.4867ZM58.655 41.4039L59.9059 40.8071L59.0448 39.002L57.7939 39.5987L58.655 41.4039ZM60.3251 39.3774L57.9082 35.4814L56.2087 36.5357L58.6256 40.4317L60.3251 39.3774ZM68.4103 39.0393L68.1633 40.0083L68.1686 40.0096L68.4103 39.0393ZM63.4473 28.5867L64.354 29.0085L64.354 29.0085L63.4473 28.5867ZM72.8745 22.6935L73.7995 22.3134L73.4951 21.5729L72.706 21.7078L72.8745 22.6935ZM75.4809 29.0352L75.3981 30.0318L77.0274 30.1673L76.4059 28.6551L75.4809 29.0352ZM73.3729 29.2497L73.5956 30.2246L73.5992 30.2238L73.3729 29.2497ZM69.4969 33.123L69.6957 34.103L69.7075 34.1006L69.7193 34.0979L69.4969 33.123ZM74.5783 30.6059L73.9531 29.8254L73.9504 29.8276L74.5783 30.6059ZM76.168 28.9634L77.0679 28.5274L76.2998 26.942L75.3323 28.4142L76.168 28.9634ZM79.1987 35.2191L79.8736 35.9569L80.4236 35.4538L80.0986 34.7831L79.1987 35.2191ZM74.3569 37.1653C72.1467 38.2197 70.2633 38.4703 68.652 38.0689L68.1686 40.0096C70.3596 40.5554 72.7276 40.1585 75.218 38.9705L74.3569 37.1653ZM68.6574 38.0703C67.1225 37.679 65.8099 36.5332 64.7794 34.3729L62.9743 35.234C64.174 37.749 65.8837 39.4271 68.1633 40.0083L68.6574 38.0703ZM64.7794 34.3729C63.7432 32.2008 63.6822 30.4524 64.354 29.0085L62.5406 28.1648C61.5428 30.3094 61.7681 32.7056 62.9743 35.234L64.7794 34.3729ZM64.354 29.0085C65.063 27.4846 66.453 26.1667 68.6745 25.107L67.8133 23.3019C65.309 24.4966 63.5012 26.1002 62.5406 28.1648L64.354 29.0085ZM68.6745 25.107C70.1685 24.3944 71.6241 23.9218 73.043 23.6792L72.706 21.7078C71.0845 21.985 69.453 22.5197 67.8133 23.3019L68.6745 25.107ZM71.9496 23.0737L74.556 29.4154L76.4059 28.6551L73.7995 22.3134L71.9496 23.0737ZM75.5638 28.0387C74.8436 27.9788 74.0305 28.0704 73.1467 28.2757L73.5992 30.2238C74.3631 30.0464 74.9553 29.995 75.3981 30.0318L75.5638 28.0387ZM73.1502 28.2749C72.2678 28.4765 71.4196 28.7711 70.6072 29.1587L71.4683 30.9638C72.1469 30.6401 72.8556 30.3937 73.5956 30.2246L73.1502 28.2749ZM70.6072 29.1587C69.4648 29.7036 68.5567 30.2425 67.967 30.788C67.422 31.292 66.8083 32.1508 67.2777 33.1346L69.0828 32.2735C69.2206 32.5624 68.9174 32.6332 69.325 32.2563C69.6877 31.9207 70.3741 31.4857 71.4683 30.9638L70.6072 29.1587ZM67.2777 33.1346C67.4957 33.5917 67.8716 33.9205 68.3554 34.0745C68.7988 34.2155 69.2669 34.19 69.6957 34.103L69.2981 32.1429C69.1794 32.167 69.0931 32.1744 69.0345 32.1743C68.976 32.1742 68.9558 32.1667 68.9618 32.1686C68.971 32.1715 68.9997 32.1832 69.0319 32.2114C69.0642 32.2395 69.0792 32.2659 69.0828 32.2735L67.2777 33.1346ZM69.7193 34.0979C70.5144 33.9166 71.5371 33.5136 72.7563 32.932L71.8951 31.1269C70.7135 31.6906 69.8503 32.0167 69.2745 32.148L69.7193 34.0979ZM72.7563 32.932C73.6247 32.5178 74.4415 32.0011 75.2062 31.3842L73.9504 29.8276C73.3037 30.3493 72.6189 30.7817 71.8951 31.1269L72.7563 32.932ZM75.2034 31.3864C75.9682 30.7739 76.584 30.1512 77.0037 29.5126L75.3323 28.4142C75.0689 28.815 74.6249 29.2873 73.9531 29.8254L75.2034 31.3864ZM75.268 29.3994L78.2987 35.6551L80.0986 34.7831L77.0679 28.5274L75.268 29.3994ZM78.5237 34.4812C77.4809 35.4352 76.1001 36.3338 74.3569 37.1653L75.218 38.9705C77.0887 38.0781 78.6487 37.0775 79.8736 35.9569L78.5237 34.4812ZM83.0281 29.0879L83.8576 28.5294L83.848 28.5152L83.838 28.5014L83.0281 29.0879ZM85.4231 32.6453L85.8536 33.5479L86.9001 33.0487L86.2526 32.0869L85.4231 32.6453ZM80.4193 35.0323L79.5167 35.4629L79.9473 36.3654L80.8498 35.9349L80.4193 35.0323ZM74.0901 21.7646L73.6596 20.8621L72.757 21.2926L73.1875 22.1952L74.0901 21.7646ZM78.7717 19.5313L79.7033 19.1678L79.3122 18.1656L78.3412 18.6288L78.7717 19.5313ZM81.2825 25.9652L80.3509 26.3287L80.742 27.331L81.713 26.8678L81.2825 25.9652ZM81.5289 25.8477L81.9594 26.7502L82.6963 26.3987L82.4994 25.6065L81.5289 25.8477ZM79.8331 19.025L79.4026 18.1224L78.6657 18.4739L78.8627 19.2662L79.8331 19.025ZM86.5807 15.8062L87.514 16.1652L88.4149 13.8232L86.1501 14.9036L86.5807 15.8062ZM82.8207 25.5804L81.8874 25.2214L81.548 26.1037L82.4098 26.4921L82.8207 25.5804ZM83.1467 25.7274L82.7358 26.6391L83.8202 27.1278L84.1154 25.9756L83.1467 25.7274ZM89.2902 23.6809L88.6619 24.4589L88.6646 24.461L89.2902 23.6809ZM92.7203 29.1643L93.1509 30.0669L93.9592 29.6813L93.6647 28.8355L92.7203 29.1643ZM87.2427 31.7773L86.2601 31.9631L86.5013 33.239L87.6732 32.6799L87.2427 31.7773ZM86.6164 29.5865L85.678 29.932L85.6811 29.9407L85.6845 29.9492L86.6164 29.5865ZM85.7032 27.6722L84.8404 28.1777L84.8457 28.1868L84.8512 28.1958L85.7032 27.6722ZM84.5421 26.4577L84.03 27.3166L84.0466 27.3265L84.0636 27.3358L84.5421 26.4577ZM82.4564 27.4993L81.4586 27.432L81.4579 27.4428L82.4564 27.4993ZM82.1985 29.6464L84.5936 33.2038L86.2526 32.0869L83.8576 28.5294L82.1985 29.6464ZM84.9925 31.7428L79.9887 34.1298L80.8498 35.9349L85.8536 33.5479L84.9925 31.7428ZM81.3218 34.6018L74.9927 21.3341L73.1875 22.1952L79.5167 35.4629L81.3218 34.6018ZM74.5207 22.6672L79.2023 20.4339L78.3412 18.6288L73.6596 20.8621L74.5207 22.6672ZM77.8401 19.8949L80.3509 26.3287L82.2141 25.6017L79.7033 19.1678L77.8401 19.8949ZM81.713 26.8678L81.9594 26.7502L81.0983 24.9451L80.8519 25.0626L81.713 26.8678ZM82.4994 25.6065L80.8036 18.7838L78.8627 19.2662L80.5584 26.0889L82.4994 25.6065ZM80.2637 19.9276L87.0113 16.7087L86.1501 14.9036L79.4026 18.1224L80.2637 19.9276ZM85.6474 15.4471L81.8874 25.2214L83.754 25.9395L87.514 16.1652L85.6474 15.4471ZM82.4098 26.4921L82.7358 26.6391L83.5576 24.8157L83.2316 24.6687L82.4098 26.4921ZM84.1154 25.9756C84.4454 24.688 84.9102 24.156 85.308 23.9662L84.4469 22.1611C83.2526 22.7308 82.5636 23.9746 82.178 25.4791L84.1154 25.9756ZM85.308 23.9662C85.9211 23.6737 86.4739 23.5893 86.9888 23.6613C87.5087 23.734 88.0652 23.977 88.662 24.4589L89.9184 22.9028C89.1024 22.2439 88.2169 21.8136 87.2659 21.6806C86.3099 21.5469 85.3628 21.7242 84.4469 22.1611L85.308 23.9662ZM88.6646 24.461C89.8702 25.4279 90.9298 27.0627 91.7759 29.4931L93.6647 28.8355C92.751 26.2111 91.5238 24.1903 89.9158 22.9007L88.6646 24.461ZM92.2898 28.2617L86.8121 30.8748L87.6732 32.6799L93.1509 30.0669L92.2898 28.2617ZM88.2252 31.5916C88.0714 30.7778 87.8458 29.9883 87.5483 29.2238L85.6845 29.9492C85.9368 30.5977 86.1288 31.2687 86.2601 31.9631L88.2252 31.5916ZM87.5548 29.241C87.2729 28.4753 86.9409 27.7762 86.5551 27.1486L84.8512 28.1958C85.1584 28.6957 85.4352 29.2728 85.678 29.932L87.5548 29.241ZM86.566 27.1666C86.1687 26.4886 85.6634 25.9299 85.0206 25.5796L84.0636 27.3358C84.3012 27.4653 84.57 27.7162 84.8404 28.1777L86.566 27.1666ZM85.0543 25.5988C84.3543 25.1814 83.5693 25.1158 82.8168 25.4748L83.6779 27.2799C83.7847 27.229 83.8629 27.217 84.03 27.3166L85.0543 25.5988ZM82.8168 25.4748C82.0229 25.8535 81.5193 26.5319 81.4586 27.432L83.4541 27.5665C83.4606 27.4699 83.4838 27.4296 83.4973 27.4104C83.5129 27.3883 83.5564 27.3379 83.6779 27.2799L82.8168 25.4748ZM81.4579 27.4428C81.4126 28.2445 81.7284 28.9982 82.2181 29.6744L83.838 28.5014C83.5095 28.0478 83.4442 27.7424 83.4548 27.5557L81.4579 27.4428ZM26.321 89.6194L25.8904 88.7168L25.0991 89.0943L25.3699 89.9281L26.321 89.6194ZM27.2629 92.5205L27.6934 93.4231L28.4847 93.0456L28.214 92.2117L27.2629 92.5205ZM21.2924 95.3686L20.2993 95.4857L20.4628 96.8723L21.7229 96.2712L21.2924 95.3686ZM19.4742 79.949L19.0437 79.0464L18.3973 79.3548L18.4811 80.0661L19.4742 79.949ZM24.8571 77.3812L25.5731 76.683L25.073 76.1702L24.4266 76.4786L24.8571 77.3812ZM35.6973 88.497L36.1279 89.3995L37.3881 88.7984L36.4132 87.7988L35.6973 88.497ZM29.7648 91.327L28.9263 91.8719L29.404 92.607L30.1953 92.2296L29.7648 91.327ZM28.1026 88.7694L28.9411 88.2245L28.4634 87.4894L27.6721 87.8669L28.1026 88.7694ZM24.7142 83.5686L25.564 83.0414L25.0919 82.2805L24.2837 82.666L24.7142 83.5686ZM24.392 83.7223L23.9615 82.8197L23.1569 83.2035L23.4461 84.0467L24.392 83.7223ZM25.8802 88.0613L24.9343 88.3857L25.2983 89.4469L26.3108 88.9639L25.8802 88.0613ZM27.1312 87.4646L27.5617 88.3671L28.5696 87.8863L27.9809 86.9374L27.1312 87.4646ZM25.3699 89.9281L26.3117 92.8293L28.214 92.2117L27.2721 89.3106L25.3699 89.9281ZM26.8323 91.6179L20.8618 94.4661L21.7229 96.2712L27.6934 93.4231L26.8323 91.6179ZM22.2855 95.2515L20.4674 79.8319L18.4811 80.0661L20.2993 95.4857L22.2855 95.2515ZM19.9048 80.8516L25.2877 78.2837L24.4266 76.4786L19.0437 79.0464L19.9048 80.8516ZM24.1412 78.0794L34.9814 89.1951L36.4132 87.7988L25.5731 76.683L24.1412 78.0794ZM35.2668 87.5944L29.3342 90.4244L30.1953 92.2296L36.1279 89.3995L35.2668 87.5944ZM30.6033 90.7821L28.9411 88.2245L27.2642 89.3144L28.9263 91.8719L30.6033 90.7821ZM27.6721 87.8669L25.8904 88.7168L26.7515 90.5219L28.5332 89.672L27.6721 87.8669ZM24.2837 82.666L23.9615 82.8197L24.8226 84.6249L25.1448 84.4711L24.2837 82.666ZM23.4461 84.0467L24.9343 88.3857L26.8261 87.7369L25.3379 83.3979L23.4461 84.0467ZM26.3108 88.9639L27.5617 88.3671L26.7006 86.562L25.4497 87.1588L26.3108 88.9639ZM27.9809 86.9374L25.564 83.0414L23.8645 84.0957L26.2814 87.9917L27.9809 86.9374ZM40.7832 86.0708L41.2137 86.9734L42.2255 86.4908L41.6309 85.5405L40.7832 86.0708ZM36.0068 88.3493L35.1042 88.7799L35.5348 89.6824L36.4374 89.2519L36.0068 88.3493ZM29.6776 75.0816L29.2471 74.1791L28.3445 74.6096L28.7751 75.5122L29.6776 75.0816ZM36.5389 71.8086L36.1217 70.8998L36.115 70.9028L36.1084 70.906L36.5389 71.8086ZM41.1828 71.1056L40.9506 72.0783L40.9566 72.0797L41.1828 71.1056ZM44.5282 78.1186L45.4309 78.5489L45.4341 78.542L44.5282 78.1186ZM38.5299 82.4691L38.0993 81.5665L37.0876 82.0491L37.6821 82.9994L38.5299 82.4691ZM36.7215 78.6783L36.291 77.7757L35.3884 78.2063L35.819 79.1088L36.7215 78.6783ZM37.4268 80.1567L36.5242 80.5872L36.9548 81.4898L37.8573 81.0593L37.4268 80.1567ZM40.3526 85.1683L35.5762 87.4468L36.4374 89.2519L41.2137 86.9734L40.3526 85.1683ZM36.9094 87.9188L30.5802 74.6511L28.7751 75.5122L35.1042 88.7799L36.9094 87.9188ZM30.1082 75.9842L36.9695 72.7111L36.1084 70.906L29.2471 74.1791L30.1082 75.9842ZM36.9562 72.7173C38.5554 71.9831 39.8689 71.8201 40.9506 72.0783L41.4149 70.133C39.7659 69.7394 37.9836 70.045 36.1217 70.8998L36.9562 72.7173ZM40.9566 72.0797C41.9787 72.317 42.8141 72.9948 43.4412 74.3094L45.2463 73.4483C44.4147 71.705 43.1428 70.534 41.4089 70.1315L40.9566 72.0797ZM43.4412 74.3094C44.068 75.6233 44.0785 76.719 43.6222 77.6951L45.4341 78.542C46.1908 76.923 46.0783 75.1923 45.2463 73.4483L43.4412 74.3094ZM43.6255 77.6883C43.1405 78.7058 42.1828 79.6185 40.6012 80.373L41.4623 82.1781C43.3177 81.293 44.6909 80.1012 45.4309 78.5488L43.6255 77.6883ZM40.6012 80.373L38.0993 81.5665L38.9604 83.3716L41.4623 82.1781L40.6012 80.373ZM37.6821 82.9994L39.9354 86.6012L41.6309 85.5405L39.3776 81.9387L37.6821 82.9994ZM35.819 79.1088L36.5242 80.5872L38.3293 79.7261L37.6241 78.2477L35.819 79.1088ZM37.8573 81.0593L40.2076 79.9381L39.3465 78.133L36.9962 79.2541L37.8573 81.0593ZM40.2076 79.9381C40.7093 79.6988 41.1977 79.3874 41.5101 78.953C41.6763 78.7219 41.8028 78.4413 41.8353 78.118C41.8681 77.7925 41.799 77.4885 41.6727 77.2238L39.8676 78.0849C39.8588 78.0666 39.8366 78.005 39.8453 77.9177C39.8494 77.8779 39.8588 77.8446 39.8688 77.8201C39.8784 77.7964 39.8867 77.7849 39.8863 77.7855C39.8832 77.7897 39.8516 77.8303 39.7577 77.8982C39.6655 77.9649 39.532 78.0445 39.3465 78.133L40.2076 79.9381ZM41.6727 77.2238C41.5475 76.9614 41.3571 76.7175 41.0864 76.5377C40.8171 76.3587 40.5213 76.2782 40.2372 76.2602C39.7035 76.2264 39.1567 76.4087 38.6602 76.6455L39.5213 78.4507C39.7031 78.3639 39.8453 78.3119 39.9518 78.2834C40.0041 78.2694 40.0434 78.2623 40.071 78.2589C40.0987 78.2555 40.1111 78.2562 40.1108 78.2562C40.1066 78.2559 40.0501 78.2503 39.9795 78.2034C39.9076 78.1556 39.8752 78.101 39.8676 78.0849L41.6727 77.2238ZM38.6602 76.6455L36.291 77.7757L37.1521 79.5809L39.5213 78.4507L38.6602 76.6455ZM53.9805 79.7752L54.4111 80.6778L55.4228 80.1952L54.8283 79.2448L53.9805 79.7752ZM49.2042 82.0537L48.3016 82.4843L48.7321 83.3868L49.6347 82.9563L49.2042 82.0537ZM42.875 68.786L42.4444 67.8835L41.5419 68.314L41.9724 69.2166L42.875 68.786ZM49.7363 65.5129L49.3191 64.6041L49.3124 64.6072L49.3057 64.6104L49.7363 65.5129ZM54.3801 64.81L54.148 65.7827L54.154 65.7841L54.3801 64.81ZM57.7255 71.823L58.6283 72.2532L58.6315 72.2464L57.7255 71.823ZM51.7272 76.1735L51.2967 75.2709L50.2849 75.7535L50.8795 76.7038L51.7272 76.1735ZM49.9189 72.3827L49.4883 71.4801L48.5858 71.9107L49.0163 72.8132L49.9189 72.3827ZM50.6241 73.8611L49.7216 74.2916L50.1521 75.1942L51.0547 74.7637L50.6241 73.8611ZM53.55 78.8727L48.7736 81.1512L49.6347 82.9563L54.4111 80.6778L53.55 78.8727ZM50.1067 81.6232L43.7776 68.3555L41.9724 69.2166L48.3016 82.4843L50.1067 81.6232ZM43.3056 69.6886L50.1668 66.4155L49.3057 64.6104L42.4444 67.8835L43.3056 69.6886ZM50.1535 66.4217C51.7527 65.6875 53.0663 65.5245 54.148 65.7827L54.6123 63.8374C52.9633 63.4438 51.1809 63.7493 49.3191 64.6041L50.1535 66.4217ZM54.154 65.7841C55.176 66.0214 56.0115 66.6992 56.6386 68.0138L58.4437 67.1527C57.6121 65.4094 56.3402 64.2384 54.6062 63.8359L54.154 65.7841ZM56.6386 68.0138C57.2653 69.3277 57.2758 70.4234 56.8196 71.3995L58.6315 72.2464C59.3881 70.6274 59.2757 68.8967 58.4437 67.1527L56.6386 68.0138ZM56.8228 71.3927C56.3379 72.4101 55.3801 73.3229 53.7986 74.0774L54.6597 75.8825C56.5151 74.9974 57.8883 73.8055 58.6282 72.2532L56.8228 71.3927ZM53.7986 74.0774L51.2967 75.2709L52.1578 77.076L54.6597 75.8825L53.7986 74.0774ZM50.8795 76.7038L53.1328 80.3056L54.8283 79.2448L52.575 75.6431L50.8795 76.7038ZM49.0163 72.8132L49.7216 74.2916L51.5267 73.4305L50.8214 71.9521L49.0163 72.8132ZM51.0547 74.7637L53.405 73.6425L52.5439 71.8374L50.1936 72.9585L51.0547 74.7637ZM53.405 73.6425C53.9066 73.4032 54.3951 73.0918 54.7075 72.6574C54.8737 72.4263 55.0001 72.1457 55.0326 71.8224C55.0654 71.4969 54.9964 71.1929 54.8701 70.9282L53.0649 71.7893C53.0562 71.771 53.0339 71.7094 53.0427 71.6221C53.0467 71.5823 53.0562 71.549 53.0661 71.5245C53.0757 71.5008 53.084 71.4893 53.0836 71.4899C53.0806 71.4941 53.049 71.5346 52.9551 71.6026C52.8629 71.6693 52.7294 71.7488 52.5439 71.8374L53.405 73.6425ZM54.8701 70.9282C54.7449 70.6658 54.5544 70.4219 54.2838 70.2421C54.0145 70.0631 53.7186 69.9826 53.4345 69.9646C52.9009 69.9308 52.354 70.1131 51.8576 70.3499L52.7187 72.155C52.9005 72.0683 53.0427 72.0163 53.1491 71.9878C53.2014 71.9738 53.2408 71.9667 53.2684 71.9633C53.2961 71.9598 53.3085 71.9606 53.3082 71.9606C53.304 71.9603 53.2474 71.9547 53.1768 71.9078C53.1049 71.86 53.0726 71.8053 53.0649 71.7893L54.8701 70.9282ZM51.8576 70.3499L49.4883 71.4801L50.3494 73.2853L52.7187 72.155L51.8576 70.3499ZM64.2456 68.5033L63.815 67.6007L62.8192 68.0758L63.3896 69.0202L64.2456 68.5033ZM67.2347 73.4525L67.6653 74.3551L68.6612 73.88L68.0907 72.9355L67.2347 73.4525ZM62.4015 75.7581L61.499 76.1887L61.9295 77.0912L62.8321 76.6607L62.4015 75.7581ZM56.0724 62.4904L55.6418 61.5879L54.7392 62.0184L55.1698 62.921L56.0724 62.4904ZM62.9336 59.2173L62.5185 58.3076L62.5108 58.3111L62.5031 58.3148L62.9336 59.2173ZM70.1876 63.6445L69.3319 63.1269L69.3287 63.1323L70.1876 63.6445ZM66.6223 66.4621L66.1918 65.5595L65.2892 65.9901L65.7197 66.8926L66.6223 66.4621ZM66.7308 66.6895L65.8282 67.1201L66.2588 68.0226L67.1614 67.5921L66.7308 66.6895ZM72.0401 66.0647L71.5589 66.9413L71.5589 66.9413L72.0401 66.0647ZM74.8732 69.8087L75.3037 70.7113L76.1187 70.3225L75.8148 69.4721L74.8732 69.8087ZM69.4334 72.4037L68.4498 72.5841L68.6854 73.8684L69.864 73.3062L69.4334 72.4037ZM67.9132 68.7779L67.1099 69.3736L67.1166 69.3824L67.9132 68.7779ZM62.9707 65.8308L62.5402 64.9282L61.6376 65.3588L62.0681 66.2613L62.9707 65.8308ZM63.5946 67.1386L62.692 67.5691L63.1226 68.4717L64.0251 68.0411L63.5946 67.1386ZM65.1607 66.9587L63.815 67.6007L64.6761 69.4058L66.0219 68.7639L65.1607 66.9587ZM63.3896 69.0202L66.3788 73.9695L68.0907 72.9355L65.1016 67.9863L63.3896 69.0202ZM66.8042 72.5499L61.971 74.8555L62.8321 76.6607L67.6653 74.3551L66.8042 72.5499ZM63.3041 75.3276L56.9749 62.0599L55.1698 62.921L61.499 76.1887L63.3041 75.3276ZM56.5029 63.393L63.3642 60.1199L62.5031 58.3148L55.6418 61.5879L56.5029 63.393ZM63.3488 60.1271C65.143 59.3083 66.4808 59.0797 67.436 59.2465C68.3153 59.4 68.9967 59.9101 69.4932 60.951L71.2984 60.0899C70.5653 58.5531 69.3881 57.5571 67.78 57.2763C66.2479 57.0087 64.4694 57.4173 62.5185 58.3076L63.3488 60.1271ZM69.4932 60.951C69.8316 61.6603 69.8044 62.3459 69.3319 63.1269L71.0432 64.1621C71.8369 62.85 71.9485 61.4528 71.2984 60.0899L69.4932 60.951ZM69.3287 63.1323C68.8536 63.929 67.8686 64.7596 66.1918 65.5595L67.0529 67.3646C68.8888 66.4888 70.2806 65.441 71.0465 64.1566L69.3287 63.1323ZM65.7197 66.8926L65.8282 67.1201L67.6334 66.259L67.5249 66.0315L65.7197 66.8926ZM67.1614 67.5921L68.3365 67.0315L67.4754 65.2264L66.3003 65.7869L67.1614 67.5921ZM68.3365 67.0315C69.6244 66.4171 70.6564 66.4459 71.5589 66.9413L72.5213 65.1881C70.9442 64.3224 69.2201 64.3941 67.4754 65.2264L68.3365 67.0315ZM71.5589 66.9413C72.5171 67.4673 73.3348 68.4758 73.9315 70.1453L75.8148 69.4721C75.1137 67.5106 74.0427 66.0231 72.5213 65.1881L71.5589 66.9413ZM74.4426 68.9061L69.0028 71.5011L69.864 73.3062L75.3037 70.7113L74.4426 68.9061ZM70.417 72.2233C70.1318 70.6684 69.5709 69.3082 68.7098 68.1734L67.1166 69.3824C67.7592 70.2293 68.2118 71.2862 68.4498 72.5841L70.417 72.2233ZM68.7164 68.1823C68.2866 67.6027 67.7717 67.1182 67.1455 66.871C66.4789 66.6078 65.7941 66.6566 65.1607 66.9587L66.0219 68.7639C66.1972 68.6802 66.3037 68.6889 66.4111 68.7313C66.5589 68.7896 66.8005 68.9563 67.1099 69.3736L68.7164 68.1823ZM64.8146 63.8432L62.5402 64.9282L63.4013 66.7333L65.6757 65.6483L64.8146 63.8432ZM62.0681 66.2613L62.692 67.5691L64.4971 66.708L63.8733 65.4002L62.0681 66.2613ZM64.0251 68.0411L66.2806 66.9652L65.4195 65.1601L63.164 66.236L64.0251 68.0411ZM66.2806 66.9652C66.8056 66.7147 67.2968 66.4145 67.6263 66.0311C67.7992 65.8298 67.9595 65.5688 68.0252 65.2476C68.094 64.9109 68.0431 64.5817 67.9047 64.2914L66.0996 65.1525C66.0636 65.0771 66.0416 64.9649 66.0656 64.8473C66.0865 64.7452 66.1284 64.7054 66.1094 64.7276C66.0898 64.7504 66.0334 64.806 65.912 64.8875C65.7932 64.9672 65.6318 65.0588 65.4195 65.1601L66.2806 66.9652ZM67.9047 64.2914C67.769 64.0069 67.5518 63.76 67.2523 63.5967C66.9642 63.4396 66.6606 63.3927 66.3911 63.3963C65.8799 63.4032 65.3357 63.5946 64.8146 63.8432L65.6757 65.6483C65.8835 65.5492 66.0517 65.4839 66.1838 65.444C66.3189 65.4033 66.3927 65.3965 66.4182 65.3961C66.4416 65.3958 66.384 65.4012 66.2949 65.3527C66.1946 65.298 66.1298 65.2159 66.0996 65.1525L67.9047 64.2914ZM86.2089 62.5165L87.1446 62.8694L87.1446 62.8694L86.2089 62.5165ZM76.2392 67.2724L76.5536 66.3232L76.5536 66.3232L76.2392 67.2724ZM71.3468 57.0653L70.413 56.7075L70.4112 56.7122L71.3468 57.0653ZM81.3354 52.3004L81.0212 53.2497L81.026 53.2513L81.3354 52.3004ZM77.4054 61.6206L77.3869 62.6204L77.3869 62.6204L77.4054 61.6206ZM80.1783 57.9712L80.1597 58.971L80.1597 58.971L80.1783 57.9712ZM76.5012 59.7252L77.29 60.34L77.29 60.34L76.5012 59.7252ZM85.2732 62.1636C84.6953 63.6959 83.532 64.9192 81.6615 65.8115L82.5226 67.6166C84.7714 66.5439 86.3527 64.9687 87.1446 62.8694L85.2732 62.1636ZM81.6615 65.8115C79.791 66.7038 78.1083 66.8382 76.5536 66.3232L75.9247 68.2217C78.0546 68.9272 80.2738 68.6894 82.5226 67.6166L81.6615 65.8115ZM76.5536 66.3232C75.0324 65.8192 73.7685 64.648 72.8051 62.6285L71 63.4896C72.1343 65.8674 73.7614 67.5051 75.9247 68.2217L76.5536 66.3232ZM72.8051 62.6285C71.8403 60.6059 71.7245 58.8966 72.2823 57.4185L70.4112 56.7122C69.6125 58.8284 69.8671 61.1149 71 63.4896L72.8051 62.6285ZM72.2806 57.4232C72.8629 55.9035 74.0347 54.6807 75.9222 53.7803L75.0611 51.9752C72.804 53.0519 71.2126 54.6208 70.413 56.7075L72.2806 57.4232ZM75.9222 53.7803C77.81 52.8798 79.4892 52.7426 81.0212 53.2497L81.6497 51.3511C79.5345 50.6509 77.3179 50.8986 75.0611 51.9752L75.9222 53.7803ZM81.026 53.2513C82.5371 53.7431 83.7969 54.9054 84.7605 56.9254L86.5656 56.0643C85.4315 53.6869 83.8063 52.0529 81.6449 51.3495L81.026 53.2513ZM84.7605 56.9254C85.7238 58.9448 85.8388 60.6642 85.2732 62.1636L87.1446 62.8694C87.9488 60.7372 87.6999 58.4421 86.5656 56.0643L84.7605 56.9254ZM77.3869 62.6204C78.1649 62.6349 78.9922 62.3904 79.8372 61.9873L78.9761 60.1822C78.2796 60.5145 77.7727 60.6273 77.4239 60.6208L77.3869 62.6204ZM79.8372 61.9873C80.6823 61.5842 81.3928 61.095 81.8712 60.4813L80.2937 59.2518C80.0793 59.5269 79.6727 59.8499 78.9761 60.1822L79.8372 61.9873ZM81.8712 60.4813C82.3787 59.8301 82.616 59.0029 82.2153 58.1628L80.4101 59.0239C80.4175 59.0393 80.4171 59.0436 80.4165 59.0391C80.4158 59.0343 80.4166 59.0322 80.4158 59.0369C80.4136 59.0486 80.3969 59.1194 80.2937 59.2518L81.8712 60.4813ZM82.2153 58.1628C81.8145 57.3227 81.0223 56.9866 80.1968 56.9713L80.1597 58.971C80.3275 58.9741 80.3931 59.0056 80.4035 59.0113C80.4078 59.0137 80.4056 59.013 80.4023 59.0094C80.3992 59.0061 80.4028 59.0085 80.4101 59.0239L82.2153 58.1628ZM80.1968 56.9713C79.4188 56.9569 78.5915 57.2013 77.7464 57.6045L78.6076 59.4096C79.3041 59.0773 79.811 58.9645 80.1597 58.971L80.1968 56.9713ZM77.7464 57.6045C76.9014 58.0076 76.1908 58.4967 75.7125 59.1105L77.29 60.34C77.5044 60.0648 77.911 59.7419 78.6076 59.4096L77.7464 57.6045ZM75.7125 59.1105C75.2049 59.7617 74.9676 60.5889 75.3684 61.429L77.1735 60.5679C77.1662 60.5525 77.1666 60.5481 77.1672 60.5526C77.1679 60.5575 77.167 60.5596 77.1679 60.5548C77.17 60.5432 77.1868 60.4723 77.29 60.34L75.7125 59.1105ZM75.3684 61.429C75.7692 62.2691 76.5614 62.6051 77.3869 62.6204L77.4239 60.6208C77.2561 60.6177 77.1905 60.5862 77.1801 60.5805C77.1759 60.5781 77.178 60.5788 77.1814 60.5824C77.1845 60.5857 77.1809 60.5833 77.1735 60.5679L75.3684 61.429ZM97.7839 58.8795L98.2145 59.782L98.8609 59.4736L98.777 58.7624L97.7839 58.8795ZM92.42 61.4382L91.7049 62.1373L92.205 62.6488L92.8505 62.3408L92.42 61.4382ZM81.5608 50.3315L81.1303 49.4289L79.8684 50.0309L80.8458 51.0306L81.5608 50.3315ZM87.4365 47.5286L88.2584 46.9589L87.7738 46.2597L87.006 46.626L87.4365 47.5286ZM92.1388 54.3131L91.3169 54.8827L91.8015 55.5819L92.5693 55.2156L92.1388 54.3131ZM92.4421 54.1684L92.8726 55.071L93.6463 54.7019L93.3998 53.8808L92.4421 54.1684ZM90.0711 46.2718L89.6406 45.3692L88.8668 45.7383L89.1134 46.5594L90.0711 46.2718ZM95.9658 43.4598L96.9589 43.3427L96.7954 41.9561L95.5352 42.5573L95.9658 43.4598ZM97.3534 57.9769L91.9894 60.5357L92.8505 62.3408L98.2145 59.782L97.3534 57.9769ZM93.135 60.7392L82.2759 49.6324L80.8458 51.0306L91.7049 62.1373L93.135 60.7392ZM81.9914 51.2341L87.8671 48.4312L87.006 46.626L81.1303 49.4289L81.9914 51.2341ZM86.6146 48.0982L91.3169 54.8827L92.9607 53.7434L88.2584 46.9589L86.6146 48.0982ZM92.5693 55.2156L92.8726 55.071L92.0115 53.2658L91.7082 53.4105L92.5693 55.2156ZM93.3998 53.8808L91.0289 45.9842L89.1134 46.5594L91.4843 54.456L93.3998 53.8808ZM90.5017 47.1744L96.3963 44.3624L95.5352 42.5573L89.6406 45.3692L90.5017 47.1744ZM94.9726 43.5769L96.7908 58.9966L98.777 58.7624L96.9589 43.3427L94.9726 43.5769ZM109.828 43.385L110.233 44.2994L111.174 43.8828L110.731 42.9545L109.828 43.385ZM103.009 46.4053L102.604 45.491L101.664 45.9075L102.107 46.8358L103.009 46.4053ZM103.38 47.1824L102.477 47.613L102.925 48.5506L103.844 48.0679L103.38 47.1824ZM108.255 44.6239L109.158 44.1934L108.711 43.2557L107.791 43.7385L108.255 44.6239ZM109.069 46.3298L109.465 47.2481L110.419 46.8369L109.972 45.8992L109.069 46.3298ZM104.013 48.5092L103.617 47.5908L102.663 48.0021L103.11 48.9397L104.013 48.5092ZM104.402 49.3242L103.499 49.7547L103.951 50.7014L104.875 50.2052L104.402 49.3242ZM111.384 45.5743L112.287 45.1438L111.835 44.1971L110.911 44.6933L111.384 45.5743ZM114.034 51.1278L114.464 52.0304L115.367 51.5998L114.936 50.6972L114.034 51.1278ZM102.604 56.5799L101.702 57.0105L102.132 57.913L103.035 57.4825L102.604 56.5799ZM96.2752 43.3122L95.8447 42.4096L94.9421 42.8402L95.3727 43.7428L96.2752 43.3122ZM107.287 38.059L108.19 37.6285L107.759 36.7259L106.857 37.1564L107.287 38.059ZM109.423 42.4707L102.604 45.491L103.414 47.3196L110.233 44.2994L109.423 42.4707ZM102.107 46.8358L102.477 47.613L104.282 46.7518L103.912 45.9747L102.107 46.8358ZM103.844 48.0679L108.72 45.5094L107.791 43.7385L102.915 46.2969L103.844 48.0679ZM107.353 45.0545L108.166 46.7603L109.972 45.8992L109.158 44.1934L107.353 45.0545ZM108.673 45.4115L103.617 47.5908L104.409 49.4275L109.465 47.2481L108.673 45.4115ZM103.11 48.9397L103.499 49.7547L105.304 48.8936L104.915 48.0786L103.11 48.9397ZM104.875 50.2052L111.857 46.4553L110.911 44.6933L103.928 48.4432L104.875 50.2052ZM110.482 46.0049L113.131 51.5583L114.936 50.6972L112.287 45.1438L110.482 46.0049ZM113.603 50.2252L102.174 55.6773L103.035 57.4825L114.464 52.0304L113.603 50.2252ZM103.507 56.1494L97.1778 42.8817L95.3727 43.7428L101.702 57.0105L103.507 56.1494ZM96.7058 44.2148L107.718 38.9616L106.857 37.1564L95.8447 42.4096L96.7058 44.2148ZM106.385 38.4896L108.926 43.8156L110.731 42.9545L108.19 37.6285L106.385 38.4896ZM114.932 50.6993L114.029 51.1299L114.46 52.0324L115.362 51.6019L114.932 50.6993ZM108.603 37.4316L108.172 36.529L107.27 36.9596L107.7 37.8622L108.603 37.4316ZM120.362 33.9394L120.068 34.8952L120.073 34.8968L120.362 33.9394ZM125.045 43.7575L124.118 43.3843L124.118 43.3843L125.045 43.7575ZM115.61 40.9524L115.18 40.0499L114.277 40.4804L114.708 41.383L115.61 40.9524ZM116.596 43.0184L115.693 43.449L116.124 44.3515L117.026 43.921L116.596 43.0184ZM120.263 47.0481L114.501 49.7967L115.362 51.6019L121.124 48.8532L120.263 47.0481ZM115.834 50.2687L109.505 37.001L107.7 37.8622L114.029 51.1299L115.834 50.2687ZM109.033 38.3342L114.795 35.5855L113.934 33.7804L108.172 36.529L109.033 38.3342ZM114.795 35.5855C116.836 34.6119 118.572 34.4354 120.068 34.8952L120.656 32.9835C118.553 32.3371 116.29 32.6563 113.934 33.7804L114.795 35.5855ZM120.073 34.8968C121.531 35.3361 122.744 36.4267 123.668 38.3649L125.474 37.5038C124.373 35.1963 122.78 33.6235 120.65 32.9819L120.073 34.8968ZM123.668 38.3649C124.6 40.3171 124.69 41.9609 124.118 43.3843L125.973 44.1306C126.806 42.0608 126.58 39.8225 125.474 37.5038L123.668 38.3649ZM124.118 43.3843C123.534 44.8364 122.304 46.0745 120.263 47.0481L121.124 48.8532C123.481 47.7291 125.152 46.1718 125.973 44.1306L124.118 43.3843ZM117.17 39.1005L115.18 40.0499L116.041 41.855L118.031 40.9056L117.17 39.1005ZM114.708 41.383L115.693 43.449L117.498 42.5879L116.513 40.5219L114.708 41.383ZM117.026 43.921L119.017 42.9716L118.156 41.1665L116.165 42.1159L117.026 43.921ZM119.017 42.9716C119.774 42.6105 120.431 42.1916 120.848 41.6756C121.066 41.4061 121.243 41.0797 121.306 40.6987C121.371 40.3074 121.303 39.9304 121.142 39.5933L119.337 40.4544C119.339 40.4584 119.324 40.4225 119.333 40.3722C119.339 40.3322 119.35 40.3468 119.293 40.4182C119.159 40.5839 118.826 40.8465 118.156 41.1665L119.017 42.9716ZM121.142 39.5933C120.982 39.2565 120.733 38.9653 120.39 38.7664C120.054 38.5721 119.689 38.5002 119.339 38.4974C118.671 38.4922 117.928 38.7388 117.17 39.1005L118.031 40.9056C118.701 40.5862 119.112 40.4957 119.323 40.4974C119.414 40.4981 119.419 40.5157 119.387 40.4968C119.346 40.4734 119.332 40.4436 119.337 40.4544L121.142 39.5933Z" fill="black"/>
</svg>
