<svg width="162" height="13" viewBox="0 0 162 13" fill="none" xmlns="http://www.w3.org/2000/svg">
<rect x="0.5" y="0.5" width="161" height="12" rx="6" fill="white" stroke="black"/>
<path d="M23.038 10H20.554L20.095 6.409H19.978L19.519 10H17.044L16 3.7H18.727L18.601 7.381L18.727 7.399L19.474 4.033H20.599L21.355 7.399L21.481 7.381L21.355 3.7H24.082L23.038 10ZM29.5669 6.229L26.3719 6.139V6.508L28.7299 6.418V7.228L26.3719 7.138V7.525L29.7649 7.363V10H24.3379V3.7H29.5669V6.229ZM33.8725 10H30.1915V3.7H33.6385C34.3585 3.7 34.9315 3.835 35.3575 4.105C35.7895 4.375 36.0055 4.768 36.0055 5.284C36.0055 5.734 35.8405 6.085 35.5105 6.337C35.1805 6.583 34.7185 6.706 34.1245 6.706V6.85C35.5345 6.85 36.2395 7.324 36.2395 8.272C36.2395 8.812 36.0265 9.235 35.6005 9.541C35.1745 9.847 34.5985 10 33.8725 10ZM32.2345 6.04V6.598H33.4225C33.7585 6.598 33.9265 6.505 33.9265 6.319C33.9265 6.133 33.7495 6.04 33.3955 6.04H32.2345ZM32.2345 7.03V7.642H33.5035C33.8515 7.642 34.0255 7.54 34.0255 7.336C34.0255 7.132 33.8515 7.03 33.5035 7.03H32.2345ZM39.4885 10.135C39.0505 10.135 38.5315 10.09 37.9315 10C37.3315 9.91 36.8515 9.793 36.4915 9.649V6.751C36.8155 7.021 37.2385 7.231 37.7605 7.381C38.2825 7.531 38.8285 7.606 39.3985 7.606C40.0225 7.606 40.3345 7.54 40.3345 7.408C40.3345 7.318 40.2385 7.252 40.0465 7.21C39.8605 7.162 39.6265 7.135 39.3445 7.129C39.0625 7.117 38.7565 7.084 38.4265 7.03C38.1025 6.976 37.7995 6.901 37.5175 6.805C37.2355 6.709 36.9985 6.541 36.8065 6.301C36.6205 6.061 36.5275 5.764 36.5275 5.41C36.5275 4.786 36.8005 4.324 37.3465 4.024C37.8925 3.718 38.6245 3.565 39.5425 3.565C39.9745 3.565 40.4605 3.616 41.0005 3.718C41.5465 3.82 41.9755 3.949 42.2875 4.105L41.9905 6.706C41.3305 6.304 40.5505 6.103 39.6505 6.103C38.9905 6.103 38.6605 6.181 38.6605 6.337C38.6605 6.451 38.7925 6.526 39.0565 6.562C39.3205 6.598 39.6385 6.628 40.0105 6.652C40.3885 6.67 40.7635 6.712 41.1355 6.778C41.5135 6.844 41.8345 6.997 42.0985 7.237C42.3625 7.471 42.4945 7.792 42.4945 8.2C42.4945 8.83 42.2275 9.31 41.6935 9.64C41.1595 9.97 40.4245 10.135 39.4885 10.135ZM42.7493 6.436V3.7H47.7533V6.436L46.1603 6.31L46.1873 7.39L47.7533 7.264V10H42.7493V7.264L44.3153 7.39L44.3423 6.31L42.7493 6.436ZM53.5377 3.7L53.5647 6.481L51.6027 6.391L52.0347 10H49.6227L50.0457 6.391L48.0927 6.481L48.1107 3.7H53.5377ZM59.2037 6.229L56.0087 6.139V6.508L58.3667 6.418V7.228L56.0087 7.138V7.525L59.4017 7.363V10H53.9747V3.7H59.2037V6.229ZM64.5066 10H61.7706V3.7H64.5066C65.5506 3.7 66.3696 3.973 66.9636 4.519C67.5576 5.059 67.8546 5.833 67.8546 6.841C67.8546 7.855 67.5576 8.635 66.9636 9.181C66.3696 9.727 65.5506 10 64.5066 10ZM64.7766 6.355H63.8316V7.336H64.7766C65.4546 7.336 65.7936 7.174 65.7936 6.85C65.7936 6.52 65.4546 6.355 64.7766 6.355ZM73.8097 9.271C73.2097 9.847 72.4207 10.135 71.4427 10.135C70.4647 10.135 69.6757 9.847 69.0757 9.271C68.4757 8.695 68.1757 7.885 68.1757 6.841C68.1757 5.797 68.4727 4.99 69.0667 4.42C69.6667 3.85 70.4587 3.565 71.4427 3.565C72.4267 3.565 73.2157 3.85 73.8097 4.42C74.4097 4.99 74.7097 5.797 74.7097 6.841C74.7097 7.885 74.4097 8.695 73.8097 9.271ZM70.5697 7.3C70.7857 7.408 71.0767 7.462 71.4427 7.462C71.8087 7.462 72.0997 7.408 72.3157 7.3C72.5317 7.192 72.6397 7.042 72.6397 6.85C72.6397 6.658 72.5317 6.508 72.3157 6.4C72.0997 6.292 71.8087 6.238 71.4427 6.238C71.0767 6.238 70.7857 6.292 70.5697 6.4C70.3537 6.508 70.2457 6.658 70.2457 6.85C70.2457 7.042 70.3537 7.192 70.5697 7.3ZM81.3401 10H79.4231L77.3351 6.49L77.2181 6.526L77.7941 10H75.1211V3.7H77.0921L79.1171 6.49L79.2521 6.454L78.7841 3.7H81.3401V10ZM87.0738 6.229L83.8788 6.139V6.508L86.2368 6.418V7.228L83.8788 7.138V7.525L87.2718 7.363V10H81.8448V3.7H87.0738V6.229ZM93.3217 10H89.6407V3.7H93.0877C93.8077 3.7 94.3807 3.835 94.8067 4.105C95.2387 4.375 95.4547 4.768 95.4547 5.284C95.4547 5.734 95.2897 6.085 94.9597 6.337C94.6297 6.583 94.1677 6.706 93.5737 6.706V6.85C94.9837 6.85 95.6887 7.324 95.6887 8.272C95.6887 8.812 95.4757 9.235 95.0497 9.541C94.6237 9.847 94.0477 10 93.3217 10ZM91.6837 6.04V6.598H92.8717C93.2077 6.598 93.3757 6.505 93.3757 6.319C93.3757 6.133 93.1987 6.04 92.8447 6.04H91.6837ZM91.6837 7.03V7.642H92.9527C93.3007 7.642 93.4747 7.54 93.4747 7.336C93.4747 7.132 93.3007 7.03 92.9527 7.03H91.6837ZM98.5469 6.193L98.8979 3.7H101.76L99.3569 7.525L99.7709 10H97.1789L97.6019 7.525L95.1899 3.7H98.0429L98.4029 6.193H98.5469ZM106.541 10.135C105.761 10.135 105.122 9.853 104.624 9.289C104.132 8.719 103.886 7.912 103.886 6.868C103.886 5.782 104.207 4.96 104.849 4.402C105.497 3.844 106.361 3.565 107.441 3.565C108.215 3.565 108.962 3.637 109.682 3.781L109.457 6.283C108.827 6.139 108.188 6.067 107.54 6.067C107.042 6.067 106.646 6.136 106.352 6.274C106.064 6.406 105.92 6.595 105.92 6.841C105.92 7.099 106.031 7.294 106.253 7.426C106.481 7.552 106.799 7.615 107.207 7.615C107.477 7.615 107.693 7.582 107.855 7.516C108.023 7.444 108.11 7.351 108.116 7.237L106.658 7.228V6.373H110.717V7.309H110.258L110.348 10H108.368L108.8 7.597H108.656C108.512 8.551 108.272 9.214 107.936 9.586C107.606 9.952 107.141 10.135 106.541 10.135ZM110.909 6.436V3.7H115.913V6.436L114.32 6.31L114.347 7.39L115.913 7.264V10H110.909V7.264L112.475 7.39L112.502 6.31L110.909 6.436ZM119.105 7.327L119.141 7.444L121.904 7.111V10H116.27V7.885L118.925 6.418L118.898 6.301L116.387 6.634V3.7H121.652V5.815L119.105 7.327ZM125.054 10H122.309L122.813 3.7H125.396L125.918 7.228H126.053L126.584 3.7H129.158L129.671 10H126.917L127.376 6.184L127.241 6.166L126.44 9.235H125.531L124.739 6.166L124.595 6.184L125.054 10ZM135.456 9.271C134.856 9.847 134.067 10.135 133.089 10.135C132.111 10.135 131.322 9.847 130.722 9.271C130.122 8.695 129.822 7.885 129.822 6.841C129.822 5.797 130.119 4.99 130.713 4.42C131.313 3.85 132.105 3.565 133.089 3.565C134.073 3.565 134.862 3.85 135.456 4.42C136.056 4.99 136.356 5.797 136.356 6.841C136.356 7.885 136.056 8.695 135.456 9.271ZM132.216 7.3C132.432 7.408 132.723 7.462 133.089 7.462C133.455 7.462 133.746 7.408 133.962 7.3C134.178 7.192 134.286 7.042 134.286 6.85C134.286 6.658 134.178 6.508 133.962 6.4C133.746 6.292 133.455 6.238 133.089 6.238C132.723 6.238 132.432 6.292 132.216 6.4C132 6.508 131.892 6.658 131.892 6.85C131.892 7.042 132 7.192 132.216 7.3ZM138.775 7.732H137.254L136.912 3.7H139.081L138.775 7.732ZM138.721 9.865C138.535 10.033 138.292 10.117 137.992 10.117C137.692 10.117 137.449 10.033 137.263 9.865C137.077 9.697 136.984 9.475 136.984 9.199C136.984 8.929 137.077 8.71 137.263 8.542C137.449 8.368 137.692 8.281 137.992 8.281C138.292 8.281 138.535 8.368 138.721 8.542C138.913 8.71 139.009 8.929 139.009 9.199C139.003 9.475 138.907 9.697 138.721 9.865ZM141.737 7.732H140.216L139.874 3.7H142.043L141.737 7.732ZM141.683 9.865C141.497 10.033 141.254 10.117 140.954 10.117C140.654 10.117 140.411 10.033 140.225 9.865C140.039 9.697 139.946 9.475 139.946 9.199C139.946 8.929 140.039 8.71 140.225 8.542C140.411 8.368 140.654 8.281 140.954 8.281C141.254 8.281 141.497 8.368 141.683 8.542C141.875 8.71 141.971 8.929 141.971 9.199C141.965 9.475 141.869 9.697 141.683 9.865ZM144.698 7.732H143.177L142.835 3.7H145.004L144.698 7.732ZM144.644 9.865C144.458 10.033 144.215 10.117 143.915 10.117C143.615 10.117 143.372 10.033 143.186 9.865C143 9.697 142.907 9.475 142.907 9.199C142.907 8.929 143 8.71 143.186 8.542C143.372 8.368 143.615 8.281 143.915 8.281C144.215 8.281 144.458 8.368 144.644 8.542C144.836 8.71 144.932 8.929 144.932 9.199C144.926 9.475 144.83 9.697 144.644 9.865Z" fill="black"/>
</svg>
